<?xml version="1.0" standalone="no"?>
<!DOCTYPE svg PUBLIC "-//W3C//DTD SVG 20010904//EN"
 "http://www.w3.org/TR/2001/REC-SVG-20010904/DTD/svg10.dtd">
<svg version="1.0" xmlns="http://www.w3.org/2000/svg"
 width="601.000000pt" height="601.000000pt" viewBox="0 0 601.000000 601.000000"
 preserveAspectRatio="xMidYMid meet">
<metadata>
Created by potrace 1.11, written by Peter Selinger 2001-2013
</metadata>
<g transform="translate(0.000000,601.000000) scale(0.100000,-0.100000)"
fill="#000000" stroke="none">
<path d="M3274 4016 c-3 -8 -4 -23 -2 -33 3 -13 7 -9 15 15 12 31 -1 48 -13
18z"/>
<path d="M3262 3811 c-27 -23 -28 -57 -2 -71 17 -9 20 -8 20 8 0 23 30 52 53
52 25 0 21 17 -5 24 -35 9 -43 7 -66 -13z"/>
<path d="M4621 3714 c0 -11 3 -14 6 -6 3 7 2 16 -1 19 -3 4 -6 -2 -5 -13z"/>
<path d="M3286 3697 c3 -10 9 -15 12 -12 3 3 0 11 -7 18 -10 9 -11 8 -5 -6z"/>
<path d="M3337 3678 c-3 -11 -10 -17 -16 -13 -7 3 -11 -2 -11 -14 0 -25 1 -25
37 -9 48 21 59 52 19 54 -16 1 -26 -5 -29 -18z"/>
<path d="M3385 3648 c-4 -9 -5 -27 -3 -40 l3 -23 13 23 c9 15 10 28 3 40 -9
16 -10 16 -16 0z"/>
<path d="M4522 3626 c-7 -15 -12 -35 -12 -44 1 -9 7 -2 16 17 17 41 14 66 -4
27z"/>
<path d="M4442 3610 c0 -14 2 -19 5 -12 2 6 2 18 0 25 -3 6 -5 1 -5 -13z"/>
<path d="M4491 3604 c0 -11 3 -14 6 -6 3 7 2 16 -1 19 -3 4 -6 -2 -5 -13z"/>
<path d="M4544 3561 c-16 -32 -33 -57 -39 -53 -5 3 -7 2 -3 -3 4 -4 -2 -23
-13 -42 -12 -19 -19 -36 -16 -39 2 -3 16 14 29 38 39 66 79 150 75 155 -2 2
-17 -23 -33 -56z"/>
<path d="M3306 3595 c-3 -8 -1 -15 3 -15 5 0 11 7 15 15 3 8 1 15 -3 15 -5 0
-11 -7 -15 -15z"/>
<path d="M3416 3595 c4 -8 8 -15 10 -15 2 0 4 7 4 15 0 8 -4 15 -10 15 -5 0
-7 -7 -4 -15z"/>
<path d="M4367 3596 c-10 -25 -9 -38 3 -31 13 8 13 -1 -1 -27 -8 -14 -8 -23 0
-31 14 -14 14 -57 1 -57 -5 0 -10 10 -10 22 0 43 -9 10 -14 -51 -6 -70 -33
-178 -50 -200 -8 -11 -8 -13 2 -7 17 10 41 58 50 103 l8 38 24 -77 c13 -43 25
-76 28 -74 2 3 8 31 12 63 4 32 11 68 15 81 5 14 3 22 -4 22 -6 0 -11 -11 -11
-25 0 -14 -5 -25 -11 -25 -5 0 -7 5 -4 10 3 6 2 10 -4 10 -10 0 6 31 47 90 15
22 13 21 -16 -5 -17 -16 -32 -36 -32 -43 0 -7 -4 -11 -9 -8 -4 3 -6 17 -3 31
4 21 1 24 -14 18 -13 -4 -8 4 13 27 25 26 30 37 23 51 -6 10 -10 26 -10 36 -1
10 -7 31 -14 48 -10 25 -13 27 -19 11z m14 -79 c-10 -9 -11 -8 -5 6 3 10 9 15
12 12 3 -3 0 -11 -7 -18z m29 -247 c0 -5 -2 -10 -4 -10 -3 0 -8 5 -11 10 -3 6
-1 10 4 10 6 0 11 -4 11 -10z"/>
<path d="M4483 3542 c0 -22 4 -29 10 -23 7 7 7 18 0 33 -9 20 -10 20 -10 -10z"/>
<path d="M4419 3527 c-1 -7 0 -16 1 -22 2 -5 2 -19 2 -30 -1 -18 1 -18 19 4
11 13 19 31 17 39 -4 18 -37 25 -39 9z m25 -21 c-5 -14 -9 -15 -15 -5 -5 8 -3
17 4 21 15 9 19 4 11 -16z"/>
<path d="M3800 3490 c0 -5 5 -10 11 -10 5 0 7 5 4 10 -3 6 -8 10 -11 10 -2 0
-4 -4 -4 -10z"/>
<path d="M3978 3493 c12 -2 30 -2 40 0 9 3 -1 5 -23 4 -22 0 -30 -2 -17 -4z"/>
<path d="M3830 3480 c0 -5 5 -10 11 -10 5 0 7 5 4 10 -3 6 -8 10 -11 10 -2 0
-4 -4 -4 -10z"/>
<path d="M4121 3430 c0 -8 4 -22 9 -30 12 -18 12 -2 0 25 -6 13 -9 15 -9 5z"/>
<path d="M3278 3358 c-8 -5 2 -8 26 -8 22 0 36 3 32 7 -10 10 -43 11 -58 1z"/>
<path d="M3940 3276 c0 -19 56 -95 74 -100 28 -7 33 2 10 18 -33 24 -60 50
-72 71 -6 11 -12 16 -12 11z"/>
<path d="M3500 3263 c0 -15 29 -49 30 -35 0 7 -7 20 -15 28 -8 9 -15 11 -15 7z"/>
<path d="M3380 3206 c-27 -12 -25 -24 5 -38 17 -8 25 -19 24 -32 -2 -35 1 -46
12 -46 7 0 18 -8 25 -17 10 -13 13 -14 14 -4 0 8 -8 20 -17 27 -17 12 -17 14
5 43 12 17 22 35 22 41 0 5 5 10 10 10 6 0 10 4 10 9 0 13 -85 18 -110 7z m65
-16 c-3 -5 -10 -10 -16 -10 -5 0 -9 5 -9 10 0 6 7 10 16 10 8 0 12 -4 9 -10z"/>
<path d="M3850 3195 c7 -8 22 -15 34 -15 20 1 20 2 -4 15 -33 19 -46 19 -30 0z"/>
<path d="M3958 3193 c7 -3 16 -2 19 1 4 3 -2 6 -13 5 -11 0 -14 -3 -6 -6z"/>
<path d="M4422 3168 c41 -62 78 -126 78 -134 0 -5 21 -29 46 -54 25 -25 57
-64 72 -87 15 -24 31 -43 35 -43 17 0 67 -42 62 -51 -4 -5 25 -9 69 -9 81 0
131 -13 120 -31 -4 -8 -9 -7 -15 2 -8 14 -10 12 -13 -13 -1 -7 -8 -12 -15 -10
-7 1 -10 -2 -6 -8 3 -6 11 -8 16 -5 5 3 6 -1 3 -9 -3 -9 -1 -16 5 -16 6 0 11
8 11 18 0 11 9 27 20 37 11 10 17 21 15 25 -6 9 25 23 33 15 3 -3 1 -5 -4 -5
-5 0 -11 -11 -12 -25 -1 -15 3 -24 10 -22 7 1 14 -11 18 -28 3 -16 7 -29 10
-27 3 1 15 5 28 8 13 4 22 14 22 26 0 31 -30 86 -58 108 -25 20 -58 28 -47 11
3 -5 1 -12 -3 -15 -5 -3 -26 12 -47 34 -21 21 -52 44 -69 51 -17 7 -41 21 -54
30 -13 10 -53 28 -90 40 -84 27 -124 47 -117 58 2 5 -4 11 -15 14 -11 3 -38
35 -62 71 -23 36 -46 66 -51 66 -5 0 -3 -10 5 -22z"/>
<path d="M4198 3153 c-10 -2 -18 -8 -18 -13 0 -4 9 -6 20 -3 11 3 20 9 20 14
0 5 -1 8 -2 8 -2 -1 -11 -3 -20 -6z"/>
<path d="M4130 3140 c0 -5 4 -10 9 -10 6 0 13 5 16 10 3 6 -1 10 -9 10 -9 0
-16 -4 -16 -10z"/>
<path d="M3630 3040 c0 -5 5 -10 11 -10 5 0 7 5 4 10 -3 6 -8 10 -11 10 -2 0
-4 -4 -4 -10z"/>
<path d="M3890 3025 c27 -14 36 -13 25 4 -3 6 -16 11 -28 11 -21 -1 -21 -1 3
-15z"/>
<path d="M4602 3015 c2 -3 29 -9 59 -15 30 -6 63 -13 74 -16 13 -4 17 -3 10 3
-5 6 -37 15 -69 22 -65 12 -82 14 -74 6z"/>
<path d="M3695 2954 c-27 -14 -57 -32 -65 -41 -8 -9 12 -1 45 17 93 51 107 68
20 24z"/>
<path d="M3904 2967 c-7 -7 -26 -25 -43 -40 -17 -16 -31 -38 -32 -50 0 -18 -2
-19 -7 -5 -5 13 -11 15 -22 8 -8 -5 -10 -10 -5 -10 20 -1 -21 -20 -42 -20 -13
0 -23 -5 -23 -11 0 -6 7 -9 15 -5 8 3 15 1 15 -4 0 -6 -6 -10 -12 -10 -14 0
-17 -87 -4 -108 4 -8 1 -12 -10 -12 -14 0 -36 -19 -74 -67 -18 -22 -10 -25 15
-5 14 11 33 18 43 15 13 -3 21 5 30 30 7 18 12 41 12 50 0 19 28 50 54 60 19
8 59 -19 64 -42 2 -8 12 -25 22 -38 10 -13 17 -32 14 -41 -5 -15 -4 -15 6 1 9
14 7 23 -11 48 -11 16 -20 32 -18 33 12 10 106 56 115 56 6 0 24 12 39 26 l27
25 -64 65 c-65 64 -83 73 -104 51z"/>
<path d="M3490 2922 c0 -9 50 -35 56 -29 2 2 -10 11 -26 21 -17 9 -30 13 -30
8z"/>
<path d="M3771 2896 c-51 -32 -52 -33 -23 -32 17 0 30 4 29 8 -1 4 12 19 28
32 42 35 29 32 -34 -8z"/>
<path d="M4880 2906 c0 -2 20 -16 45 -30 25 -13 43 -21 40 -15 -7 10 -85 52
-85 45z"/>
<path d="M3660 2827 c-8 -7 -24 -24 -35 -37 -12 -15 -4 -11 18 9 33 31 42 42
35 41 -2 0 -10 -6 -18 -13z"/>
<path d="M4067 2810 c-3 -12 0 -20 8 -20 8 0 11 8 8 20 -3 11 -7 20 -8 20 -1
0 -5 -9 -8 -20z"/>
<path d="M3836 2767 c3 -10 9 -15 12 -12 3 3 0 11 -7 18 -10 9 -11 8 -5 -6z"/>
<path d="M4796 2751 c-9 -16 -16 -39 -16 -51 0 -18 3 -19 20 -8 13 9 18 20 15
38 -3 14 -2 19 1 13 10 -21 26 -15 22 9 -5 33 -25 33 -42 -1z"/>
<path d="M4144 2744 c3 -9 6 -18 6 -20 0 -2 5 -4 10 -4 6 0 10 9 10 20 0 12
-7 20 -16 20 -11 0 -14 -5 -10 -16z"/>
<path d="M4641 2745 c0 -11 4 -29 8 -39 6 -15 9 -16 13 -5 2 8 -1 25 -9 39
-11 22 -13 22 -12 5z"/>
<path d="M4300 2730 c0 -5 5 -10 11 -10 5 0 7 5 4 10 -3 6 -8 10 -11 10 -2 0
-4 -4 -4 -10z"/>
<path d="M4905 2730 c-3 -5 -1 -10 4 -10 6 0 11 5 11 10 0 6 -2 10 -4 10 -3 0
-8 -4 -11 -10z"/>
<path d="M5060 2723 c0 -6 8 -17 18 -24 16 -13 16 -13 2 6 -8 11 -16 22 -17
24 -2 2 -3 0 -3 -6z"/>
<path d="M3871 2703 c0 -5 4 -17 9 -28 8 -18 9 -17 9 8 1 15 -3 27 -9 27 -5 0
-10 -3 -9 -7z"/>
<path d="M4190 2680 c0 -5 5 -10 10 -10 6 0 10 5 10 10 0 6 -4 10 -10 10 -5 0
-10 -4 -10 -10z"/>
<path d="M4791 2671 c-16 -10 -7 -45 20 -80 14 -17 19 -19 19 -8 0 9 -4 19
-10 22 -5 3 -10 15 -10 26 0 10 -5 19 -11 19 -8 0 -8 5 1 15 14 17 11 19 -9 6z"/>
<path d="M5091 2665 c0 -5 11 -30 24 -55 13 -25 24 -40 24 -35 0 6 -11 30 -24
55 -13 25 -24 41 -24 35z"/>
<path d="M3875 2640 c-3 -5 -1 -10 4 -10 6 0 11 5 11 10 0 6 -2 10 -4 10 -3 0
-8 -4 -11 -10z"/>
<path d="M5025 2630 c4 -14 10 -27 14 -30 27 -22 61 -157 53 -210 -1 -8 8 -77
20 -153 18 -110 20 -142 10 -157 -7 -11 -12 -37 -12 -58 0 -20 -7 -48 -16 -60
-15 -22 -15 -24 4 -29 14 -3 18 -11 15 -24 -4 -15 -2 -18 13 -12 17 6 17 5 5
-10 -12 -15 -11 -17 10 -18 13 0 20 -2 14 -5 -6 -2 -8 -28 -7 -58 3 -46 1 -56
-18 -69 -16 -11 -22 -26 -23 -61 -1 -25 -6 -46 -10 -46 -5 0 -6 -8 -3 -17 3
-10 -1 -29 -9 -43 -8 -14 -14 -19 -15 -12 0 6 -5 12 -11 12 -7 0 -9 -10 -7
-25 3 -14 2 -28 -2 -30 -4 -2 -5 -15 -3 -27 3 -16 -7 -39 -31 -70 -63 -83 -72
-132 -35 -196 10 -18 19 -42 19 -53 0 -10 6 -19 14 -19 11 0 14 -16 14 -74 -1
-62 4 -84 26 -131 29 -58 43 -123 53 -239 6 -78 25 -106 73 -106 17 0 43 9 58
19 36 26 102 39 102 20 1 -20 36 -64 43 -53 11 19 16 116 7 135 -8 15 -7 19 4
19 21 0 37 66 27 117 -5 23 -5 46 -1 50 4 4 15 38 25 74 14 56 16 96 12 255
-4 130 -10 206 -21 244 -22 74 -20 118 9 233 14 54 25 110 25 125 0 49 -65
232 -83 232 -9 0 -87 162 -87 181 -1 15 -29 69 -30 57 0 -4 4 -18 10 -32 6
-17 6 -26 0 -26 -6 0 -10 7 -10 15 0 8 -3 15 -7 15 -12 0 -44 61 -37 71 3 5 1
9 -4 9 -6 0 -13 12 -17 27 -3 15 -16 41 -28 57 -12 17 -22 36 -22 41 0 6 -4
10 -10 10 -22 1 -56 27 -52 39 3 7 -6 26 -19 41 -13 15 -24 32 -24 37 0 5 -7
17 -16 26 -15 15 -16 14 -9 -8z m155 -211 c0 -6 -4 -7 -10 -4 -5 3 -10 11 -10
16 0 6 5 7 10 4 6 -3 10 -11 10 -16z m114 -195 c9 -24 7 -28 -9 -14 -17 14
-20 30 -6 30 5 0 12 -7 15 -16z m67 -1490 c5 -7 0 -23 -15 -43 -30 -40 -40
-28 -21 25 8 21 15 48 16 59 1 16 3 14 6 -5 3 -14 9 -30 14 -36z"/>
<path d="M3913 2620 c-2 -27 -30 -53 -48 -46 -13 4 -15 -11 -15 -102 1 -112
16 -177 36 -151 30 39 59 204 48 274 -6 46 -19 60 -21 25z m7 -55 c0 -8 -7
-15 -15 -15 -26 0 -18 20 13 29 1 1 2 -6 2 -14z m-37 -19 c4 -10 1 -13 -8 -9
-8 3 -12 9 -9 14 7 12 11 11 17 -5z m7 -36 c0 -5 6 -7 13 -4 8 3 13 -3 13 -15
0 -16 -4 -18 -19 -9 -14 7 -17 7 -13 -1 4 -6 3 -11 -3 -11 -15 0 -22 16 -15
34 7 17 24 22 24 6z m0 -95 c0 -5 -5 -3 -10 5 -5 8 -10 20 -10 25 0 6 5 3 10
-5 5 -8 10 -19 10 -25z m-6 -30 c-4 -8 -8 -15 -10 -15 -2 0 -4 7 -4 15 0 8 4
15 10 15 5 0 7 -7 4 -15z"/>
<path d="M3550 2610 c-6 -11 -8 -20 -6 -20 3 0 10 9 16 20 6 11 8 20 6 20 -3
0 -10 -9 -16 -20z"/>
<path d="M3680 2620 c0 -5 6 -10 14 -10 8 0 18 5 21 10 3 6 -3 10 -14 10 -12
0 -21 -4 -21 -10z"/>
<path d="M4738 2613 c6 -2 18 -2 25 0 6 3 1 5 -13 5 -14 0 -19 -2 -12 -5z"/>
<path d="M3621 2578 c-9 -14 -9 -18 -1 -13 7 4 16 1 21 -6 4 -7 11 -10 14 -7
4 4 1 16 -7 27 -14 20 -14 20 -27 -1z"/>
<path d="M3759 2578 c-23 -70 -9 -222 18 -194 4 5 2 11 -4 13 -7 3 -13 9 -13
14 0 6 5 7 10 4 6 -4 11 9 12 32 3 71 -3 133 -14 133 -4 0 -8 -1 -9 -2z"/>
<path d="M5151 2550 c0 -8 4 -24 9 -35 5 -13 9 -14 9 -5 0 8 -4 24 -9 35 -5
13 -9 14 -9 5z"/>
<path d="M3395 2500 c-10 -11 -26 -22 -36 -25 -11 -4 -19 -11 -19 -16 0 -6 20
4 45 22 25 18 45 34 45 36 0 10 -19 0 -35 -17z"/>
<path d="M3484 2505 c-19 -14 -19 -14 1 -15 16 0 17 -2 5 -9 -8 -5 -26 -12
-39 -16 -18 -5 -22 -4 -16 5 5 8 4 11 -3 6 -6 -4 -9 -13 -5 -21 3 -8 0 -15 -6
-15 -6 0 -11 5 -11 12 0 6 -6 3 -14 -8 -10 -13 -11 -21 -4 -25 6 -4 8 -14 5
-22 -3 -9 3 -27 14 -40 10 -14 19 -28 19 -31 0 -3 14 -25 30 -49 17 -25 30
-49 30 -53 0 -5 8 -18 16 -29 16 -20 16 -20 9 2 -3 13 -2 30 2 38 8 14 11 14
25 -2 9 -10 19 -31 22 -47 3 -16 8 -31 12 -35 4 -3 3 12 -1 34 -4 22 -11 78
-15 125 -5 47 -13 97 -19 112 -6 15 -8 34 -5 42 3 7 -2 20 -10 29 -8 8 -12 17
-9 21 13 12 -14 6 -33 -9z"/>
<path d="M5177 2493 c-3 -4 6 -22 19 -38 29 -36 31 -28 5 16 -10 17 -21 27
-24 22z"/>
<path d="M3836 2295 c-3 -8 -3 -23 1 -32 3 -10 2 -15 -2 -11 -12 12 -30 -20
-49 -87 -10 -33 -23 -64 -30 -70 -19 -16 -79 -107 -79 -121 0 -7 -5 -12 -11
-11 -6 1 -10 -6 -8 -15 2 -10 -3 -18 -12 -18 -9 0 -12 -7 -9 -20 3 -11 0 -20
-6 -20 -6 0 -8 -7 -4 -17 4 -10 2 -14 -4 -10 -7 4 -10 0 -8 -10 2 -10 7 -35
10 -56 5 -32 9 -36 21 -27 16 14 20 35 4 25 -5 -3 -10 -1 -10 4 0 6 4 11 8 11
5 0 14 10 20 23 10 19 10 18 5 -10 -3 -21 -1 -33 6 -33 12 0 14 -52 5 -124 -7
-51 -18 -61 -22 -18 -1 15 -6 28 -12 30 -5 2 -6 10 -3 18 3 8 -1 14 -11 14
-12 0 -16 -9 -16 -34 0 -19 -6 -41 -14 -49 -8 -7 -16 -25 -18 -38 -2 -13 -1
76 1 198 l3 222 -25 43 c-14 24 -36 56 -49 72 -20 24 -24 25 -25 10 -1 -11 -5
-51 -9 -89 -6 -65 -4 -78 31 -172 25 -68 42 -100 51 -96 9 3 11 -15 8 -84 -2
-48 -6 -98 -9 -111 -3 -13 0 -29 7 -36 16 -16 14 -63 -6 -135 -8 -30 -13 -58
-10 -62 2 -4 0 -10 -6 -14 -5 -3 -10 -14 -10 -24 0 -10 -7 -24 -15 -31 -8 -7
-15 -24 -15 -39 0 -20 -2 -23 -10 -11 -13 19 -13 115 0 138 38 70 65 173 47
184 -16 10 -47 10 -47 0 0 -9 -103 -32 -146 -32 -30 0 -31 -1 -32 -51 0 -28
-6 -103 -12 -166 -6 -62 -8 -128 -4 -146 4 -18 8 -35 8 -39 1 -12 16 -21 16
-10 0 7 5 12 10 12 15 0 12 -47 -2 -53 -7 -3 -4 -6 7 -7 l20 -1 -20 -9 c-16
-7 -17 -9 -3 -9 9 -1 19 -4 22 -9 2 -4 -13 -6 -35 -4 -24 3 -39 0 -39 -7 0 -6
-16 -11 -36 -11 -32 0 -35 -2 -28 -22 3 -13 10 -24 15 -26 4 -2 6 -9 3 -17 -3
-7 4 -32 16 -55 17 -33 24 -39 35 -30 10 8 15 8 20 0 4 -6 13 -9 21 -6 8 3 26
1 40 -5 33 -12 67 -2 60 17 -6 17 -1 17 25 3 14 -7 24 -7 32 0 17 13 52 7 52
-9 0 -7 6 -15 13 -18 6 -2 12 1 12 7 0 6 9 11 21 11 14 0 19 -5 16 -13 -3 -8
-1 -20 5 -28 8 -11 8 -10 4 5 -6 16 -4 17 9 6 8 -7 15 -25 15 -41 0 -15 11
-41 24 -56 35 -40 49 -21 51 69 1 40 6 94 10 121 7 46 -19 197 -34 197 -8 0
-5 196 4 289 5 53 4 72 -4 67 -7 -5 -11 3 -11 20 0 26 1 27 14 9 13 -18 15
-16 26 25 7 25 19 76 27 114 8 38 17 74 20 79 3 6 1 7 -6 3 -8 -6 -10 -1 -6
16 7 27 13 58 14 73 1 6 6 3 12 -5 8 -12 9 -11 4 6 -3 13 0 28 9 36 16 17 37
84 28 92 -3 3 0 6 7 6 7 0 18 15 26 33 17 40 35 187 25 207 -4 8 -5 35 -3 59
2 28 -2 48 -10 53 -18 11 -24 10 -31 -7z m21 -37 c-3 -7 -5 -2 -5 12 0 14 2
19 5 13 2 -7 2 -19 0 -25z m-205 -420 c-8 -8 -9 -4 -5 13 4 13 8 18 11 10 2
-7 -1 -18 -6 -23z m78 -12 c0 -3 -4 -8 -10 -11 -5 -3 -10 -1 -10 4 0 6 5 11
10 11 6 0 10 -2 10 -4z m-320 -966 c0 -5 -5 -10 -11 -10 -5 0 -7 5 -4 10 3 6
8 10 11 10 2 0 4 -4 4 -10z"/>
<path d="M4900 2283 c0 -16 5 -35 10 -43 7 -11 10 -4 10 28 0 23 -4 42 -10 42
-5 0 -10 -12 -10 -27z"/>
<path d="M5070 1980 c0 -5 5 -10 11 -10 5 0 7 5 4 10 -3 6 -8 10 -11 10 -2 0
-4 -4 -4 -10z"/>
<path d="M3501 1779 c1 -24 36 -103 41 -93 10 17 -4 73 -23 90 -15 13 -19 14
-18 3z"/>
<path d="M3532 1620 c0 -14 2 -19 5 -12 2 6 2 18 0 25 -3 6 -5 1 -5 -13z"/>
<path d="M4406 1589 c-3 -13 -7 -46 -9 -73 -3 -27 -9 -51 -13 -55 -15 -10 -54
-69 -54 -81 0 -5 -4 -10 -10 -10 -5 0 -10 -9 -10 -21 0 -18 2 -19 15 -5 8 8
15 18 15 22 0 4 14 30 31 58 22 35 34 70 40 116 8 64 5 95 -5 49z"/>
<path d="M3501 1294 c0 -11 3 -14 6 -6 3 7 2 16 -1 19 -3 4 -6 -2 -5 -13z"/>
<path d="M4734 1099 c-3 -5 -1 -16 4 -24 7 -14 10 -13 26 3 16 19 16 20 -4 25
-11 3 -22 1 -26 -4z"/>
<path d="M3511 745 c-1 -31 33 -85 45 -73 10 11 -3 53 -26 79 l-19 24 0 -30z"/>
</g>
</svg>
